<?xml version="1.0" encoding="UTF-8" standalone="no"?>
<svg
   inkscape:version="1.2.2 (732a01da63, 2022-12-09)"
   sodipodi:docname="Osumi.svg"
   viewBox="0 0 511.99999 512"
   height="512"
   width="512"
   xml:space="preserve"
   id="svg3713"
   version="1.1"
   xmlns:inkscape="http://www.inkscape.org/namespaces/inkscape"
   xmlns:sodipodi="http://sodipodi.sourceforge.net/DTD/sodipodi-0.dtd"
   xmlns="http://www.w3.org/2000/svg"
   xmlns:svg="http://www.w3.org/2000/svg"
   xmlns:rdf="http://www.w3.org/1999/02/22-rdf-syntax-ns#"
   xmlns:cc="http://creativecommons.org/ns#"
   xmlns:dc="http://purl.org/dc/elements/1.1/"><metadata
     id="metadata3719"><rdf:RDF><cc:Work
         rdf:about=""><dc:format>image/svg+xml</dc:format><dc:type
           rdf:resource="http://purl.org/dc/dcmitype/StillImage" /><dc:title /></cc:Work></rdf:RDF></metadata><defs
     id="defs3717"><clipPath
       id="clipPath3731"
       clipPathUnits="userSpaceOnUse"><path
         inkscape:connector-curvature="0"
         id="path3729"
         d="M 0,595.276 H 841.89 V 0 H 0 Z" /></clipPath></defs><sodipodi:namedview
     inkscape:pagecheckerboard="false"
     inkscape:document-rotation="0"
     fit-margin-bottom="0"
     fit-margin-right="0"
     fit-margin-left="0"
     fit-margin-top="0"
     inkscape:current-layer="g3721"
     inkscape:window-maximized="1"
     inkscape:window-y="-8"
     inkscape:window-x="-8"
     inkscape:cy="258.52822"
     inkscape:cx="285.32246"
     inkscape:zoom="1.3808937"
     showgrid="false"
     id="namedview3715"
     inkscape:window-height="987"
     inkscape:window-width="1680"
     inkscape:pageshadow="2"
     inkscape:pageopacity="0"
     guidetolerance="10"
     gridtolerance="10"
     objecttolerance="10"
     borderopacity="1"
     bordercolor="#666666"
     pagecolor="#ffffff"
     inkscape:showpageshadow="2"
     inkscape:deskcolor="#d1d1d1" /><g
     style="opacity:0.99999167"
     inkscape:label="Fondo"
     id="layer1"
     inkscape:groupmode="layer"><rect
       ry="109.62553"
       y="0.96094501"
       x="0.96094501"
       height="510.07809"
       width="510.07812"
       id="rect839"
       style="fill-opacity:1;stroke:#000000;stroke-width:1.922;stroke-miterlimit:4;stroke-dasharray:none;stroke-opacity:1" /></g><g
     style="display:inline"
     transform="matrix(1.3333333,0,0,-1.3333333,-3.4515946e-5,651.99998)"
     inkscape:label="Osumi"
     inkscape:groupmode="layer"
     id="g3721"><g
       transform="matrix(1.580838,0,0,1.5476992,-488.21039,-190.79487)"
       id="g3725"><g
         clip-path="url(#clipPath3731)"
         id="g3727"><g
           transform="translate(372.0834,388.4695)"
           id="g3733"><path
             inkscape:connector-curvature="0"
             id="path3735"
             style="fill:#ffffff;fill-opacity:1;fill-rule:nonzero;stroke:none"
             d="m 0,0 c 13.59,0 20.22,-1.613 27.206,-3.317 7.614,-1.852 15.483,-3.764 30.988,-3.764 15.509,0 23.386,1.912 30.987,3.764 C 96.187,-1.613 102.798,0 116.4,0 c 4.404,0 7.968,3.566 7.968,7.972 0,4.407 -3.564,7.969 -7.968,7.969 -15.505,0 -23.38,-1.916 -30.987,-3.767 C 78.398,10.47 71.784,8.859 58.194,8.859 44.604,8.859 37.993,10.47 30.984,12.174 23.368,14.025 15.509,15.941 0,15.941 -4.402,15.941 -7.969,12.379 -7.969,7.972 -7.969,3.566 -4.402,0 0,0" /></g><g
           transform="translate(430.2772,245.4299)"
           id="g3737"><path
             inkscape:connector-curvature="0"
             id="path3739"
             style="fill:#ffffff;fill-opacity:1;fill-rule:nonzero;stroke:none"
             d="m 0,0 c -27.908,0 -50.601,22.701 -50.601,50.603 0,27.9 22.693,50.612 50.601,50.612 27.91,0 50.612,-22.712 50.612,-50.612 C 50.612,22.701 27.91,0 0,0 m 0,120.707 c -38.651,0 -70.095,-31.448 -70.095,-70.104 0,-38.654 31.444,-70.095 70.095,-70.095 38.653,0 70.11,31.441 70.11,70.095 0,38.656 -31.457,70.104 -70.11,70.104" /></g></g></g></g></svg>
